<svg width="16" height="16" viewBox="0 0 16 16" fill="none" xmlns="http://www.w3.org/2000/svg">
<path fill-rule="evenodd" clip-rule="evenodd" d="M5.99996 3.33317C5.99996 2.96498 6.29844 2.6665 6.66663 2.6665H12.6666C13.0348 2.6665 13.3333 2.96498 13.3333 3.33317C13.3333 3.70136 13.0348 3.99984 12.6666 3.99984H10.1568L7.24009 11.9998H9.33329C9.70148 11.9998 9.99996 12.2983 9.99996 12.6665C9.99996 13.0347 9.70148 13.3332 9.33329 13.3332H3.33329C2.9651 13.3332 2.66663 13.0347 2.66663 12.6665C2.66663 12.2983 2.9651 11.9998 3.33329 11.9998H5.84317L8.75983 3.99984H6.66663C6.29844 3.99984 5.99996 3.70136 5.99996 3.33317Z" fill="#52525B"/>
</svg>
