<svg width="16" height="16" viewBox="0 0 16 16" fill="none" xmlns="http://www.w3.org/2000/svg">
<path d="M8.73268 11.2264L9.00001 11.1373L9.82641 10.8618C10.0845 10.7758 10.2135 10.7327 10.335 10.6749C10.4782 10.6066 10.6136 10.5229 10.7387 10.4254C10.8448 10.3427 10.941 10.2465 11.1334 10.0541L13.9738 7.21366L14.2827 6.90466C14.7947 6.39278 14.7947 5.56282 14.2827 5.05092C13.7709 4.53902 12.9409 4.53902 12.429 5.05092L12.12 5.35988L9.27961 8.20026C9.08721 8.39266 8.99101 8.48886 8.90828 8.59492C8.81074 8.72006 8.72708 8.85546 8.65881 8.99866C8.60094 9.12012 8.55788 9.24912 8.47188 9.50726L8.19641 10.3337L8.10728 10.601L8.01814 10.8684C7.97581 10.9954 8.00888 11.1355 8.10354 11.2301C8.19821 11.3248 8.33828 11.3579 8.46528 11.3155L8.73268 11.2264ZM12.12 5.35988C12.12 5.35988 12.1587 6.01642 12.7379 6.59572C13.3173 7.17499 13.9738 7.21366 13.9738 7.21366M8.10728 10.601L8.73268 11.2264" stroke="#797979"/>
<path d="M5.33398 8.66699H7.00065" stroke="#797979" stroke-linecap="round"/>
<path d="M5.33398 6H9.66732" stroke="#797979" stroke-linecap="round"/>
<path d="M5.33398 11.333H6.33398" stroke="#797979" stroke-linecap="round"/>
<path d="M13.2189 2.11405C12.4379 1.33301 11.1808 1.33301 8.66667 1.33301H7.33333C4.81917 1.33301 3.5621 1.33301 2.78105 2.11405C2 2.89511 2 4.15218 2 6.66634V9.33301C2 11.8471 2 13.1043 2.78105 13.8853C3.5621 14.6663 4.81917 14.6663 7.33333 14.6663H8.66667C11.1808 14.6663 12.4379 14.6663 13.2189 13.8853C13.8477 13.2565 13.9703 12.3194 13.9942 10.6663" stroke="#797979" stroke-linecap="round"/>
</svg>
