<svg width="37" height="47" viewBox="0 0 37 47" fill="none" xmlns="http://www.w3.org/2000/svg">
<path d="M2.46667 38.8701V46.0002" stroke="#E5B800" stroke-width="1.5" stroke-miterlimit="10" stroke-linecap="round" stroke-linejoin="round"/>
<path d="M2.46667 25.2637V35.2517" stroke="#E5B800" stroke-width="1.5" stroke-miterlimit="10" stroke-linecap="round" stroke-linejoin="round"/>
<path d="M2.46667 11.7324V21.6755" stroke="#E5B800" stroke-width="1.5" stroke-miterlimit="10" stroke-linecap="round" stroke-linejoin="round"/>
<path d="M2.46667 1V8.11344" stroke="#E5B800" stroke-width="1.5" stroke-miterlimit="10" stroke-linecap="round" stroke-linejoin="round"/>
<path d="M2.46686 25.1642C3.27698 25.1642 3.93371 24.4191 3.93371 23.5C3.93371 22.5809 3.27698 21.8358 2.46686 21.8358C1.65673 21.8358 1 22.5809 1 23.5C1 24.4191 1.65673 25.1642 2.46686 25.1642Z" stroke="#E5B800" stroke-width="1.5" stroke-miterlimit="10" stroke-linecap="round" stroke-linejoin="round"/>
<path d="M36.0001 25.5018V26.8527C36.0001 27.8922 35.2571 28.7342 34.3417 28.7342H9.3014C8.38521 28.7342 7.64301 27.8922 7.64301 26.8527V20.1471C7.64301 19.1077 8.38521 18.2656 9.3014 18.2656H34.3417C35.2571 18.2656 36.0001 19.1077 36.0001 20.1471V22.3328" stroke="#E5B800" stroke-width="1.5" stroke-miterlimit="10" stroke-linecap="round" stroke-linejoin="round"/>
<path d="M14.8957 20.8662H10.0428V26.1341H14.8957V20.8662Z" stroke="#E5B800" stroke-width="1.5" stroke-miterlimit="10" stroke-linecap="round" stroke-linejoin="round"/>
<path d="M23.7689 25.0234H33.1905" stroke="#E5B800" stroke-width="1.5" stroke-miterlimit="10" stroke-linecap="round" stroke-linejoin="round"/>
<path d="M17.4107 25.0234H20.9755" stroke="#E5B800" stroke-width="1.5" stroke-miterlimit="10" stroke-linecap="round" stroke-linejoin="round"/>
<path d="M17.4107 21.9766H23.7661" stroke="#E5B800" stroke-width="1.5" stroke-miterlimit="10" stroke-linecap="round" stroke-linejoin="round"/>
<path d="M16.2925 4.68262H34.3417C35.2571 4.68262 36.0001 5.52467 36.0001 6.56411V13.2688C36.0001 14.3083 35.2571 15.1503 34.3417 15.1503H9.3014C8.38521 15.1503 7.64301 14.3083 7.64301 13.2688V6.56411C7.64301 5.52467 8.38521 4.68262 9.3014 4.68262H13.4993" stroke="#E5B800" stroke-width="1.5" stroke-miterlimit="10" stroke-linecap="round" stroke-linejoin="round"/>
<path d="M14.8957 7.28223H10.0428V12.5501H14.8957V7.28223Z" stroke="#E5B800" stroke-width="1.5" stroke-miterlimit="10" stroke-linecap="round" stroke-linejoin="round"/>
<path d="M23.7689 11.4395H33.1905" stroke="#E5B800" stroke-width="1.5" stroke-miterlimit="10" stroke-linecap="round" stroke-linejoin="round"/>
<path d="M17.4107 11.4395H20.9755" stroke="#E5B800" stroke-width="1.5" stroke-miterlimit="10" stroke-linecap="round" stroke-linejoin="round"/>
<path d="M17.4107 8.39258H23.7661" stroke="#E5B800" stroke-width="1.5" stroke-miterlimit="10" stroke-linecap="round" stroke-linejoin="round"/>
<path d="M14.1773 31.8496H34.3414C35.2568 31.8496 35.9998 32.6917 35.9998 33.7311V40.4358C35.9998 41.4753 35.2568 42.3173 34.3414 42.3173H28.8323" stroke="#E5B800" stroke-width="1.5" stroke-miterlimit="10" stroke-linecap="round" stroke-linejoin="round"/>
<path d="M11.3844 31.8496H9.3014C8.38521 31.8496 7.64301 32.6917 7.64301 33.7311V40.4358C7.64301 41.4753 8.38521 42.3173 9.3014 42.3173H26.0394" stroke="#E5B800" stroke-width="1.5" stroke-miterlimit="10" stroke-linecap="round" stroke-linejoin="round"/>
<path d="M14.8957 34.4492H10.0428V39.7171H14.8957V34.4492Z" stroke="#E5B800" stroke-width="1.5" stroke-miterlimit="10" stroke-linecap="round" stroke-linejoin="round"/>
<path d="M23.7689 38.6064H33.1905" stroke="#E5B800" stroke-width="1.5" stroke-miterlimit="10" stroke-linecap="round" stroke-linejoin="round"/>
<path d="M17.4107 38.6064H20.9755" stroke="#E5B800" stroke-width="1.5" stroke-miterlimit="10" stroke-linecap="round" stroke-linejoin="round"/>
<path d="M17.4107 35.5596H23.7661" stroke="#E5B800" stroke-width="1.5" stroke-miterlimit="10" stroke-linecap="round" stroke-linejoin="round"/>
<path d="M2.46686 11.5814C3.27698 11.5814 3.93371 10.8363 3.93371 9.91721C3.93371 8.9981 3.27698 8.25302 2.46686 8.25302C1.65673 8.25302 1 8.9981 1 9.91721C1 10.8363 1.65673 11.5814 2.46686 11.5814Z" stroke="#E5B800" stroke-width="1.5" stroke-miterlimit="10" stroke-linecap="round" stroke-linejoin="round"/>
<path d="M2.46686 38.7473C3.27698 38.7473 3.93371 38.0022 3.93371 37.0831C3.93371 36.164 3.27698 35.4189 2.46686 35.4189C1.65673 35.4189 1 36.164 1 37.0831C1 38.0022 1.65673 38.7473 2.46686 38.7473Z" stroke="#E5B800" stroke-width="1.5" stroke-miterlimit="10" stroke-linecap="round" stroke-linejoin="round"/>
<path d="M4.14453 9.91699H7.27241" stroke="#E5B800" stroke-width="1.5" stroke-miterlimit="10" stroke-linecap="round" stroke-linejoin="round"/>
<path d="M4.12708 23.5H7.43061" stroke="#E5B800" stroke-width="1.5" stroke-miterlimit="10" stroke-linecap="round" stroke-linejoin="round"/>
<path d="M4.12708 37.083H7.43061" stroke="#E5B800" stroke-width="1.5" stroke-miterlimit="10" stroke-linecap="round" stroke-linejoin="round"/>
</svg>
