<svg width="25" height="24" viewBox="0 0 25 24" fill="none" xmlns="http://www.w3.org/2000/svg">
<path d="M3.5 12C3.5 15.7712 3.5 19.6569 4.81802 20.8284C6.13604 22 8.25736 22 12.5 22C16.7426 22 18.864 22 20.182 20.8284C21.5 19.6569 21.5 15.7712 21.5 12" stroke="#2D2D2D" stroke-width="1.5"/>
<path d="M15.1603 14.2019L21.1676 12.3997C21.7631 12.2211 22.0609 12.1317 22.2498 11.9176C22.2866 11.8759 22.3199 11.8312 22.3492 11.784C22.5 11.5415 22.5 11.2307 22.5 10.6089C22.5 8.15877 22.5 6.9337 21.827 6.10659C21.6977 5.94763 21.5524 5.80233 21.3934 5.67298C20.5663 5 19.3412 5 16.8911 5H8.10893C5.65877 5 4.4337 5 3.60659 5.67298C3.44763 5.80233 3.30233 5.94763 3.17298 6.10659C2.5 6.9337 2.5 8.15877 2.5 10.6089C2.5 11.2307 2.5 11.5415 2.65078 11.784C2.68015 11.8312 2.71341 11.8759 2.75021 11.9176C2.93915 12.1317 3.2369 12.2211 3.8324 12.3997L9.83968 14.2019" stroke="#2D2D2D" stroke-width="1.5"/>
<path d="M7 5C7.82344 4.97913 8.65925 4.45491 8.93944 3.68032C8.94806 3.65649 8.9569 3.62999 8.97457 3.57697L9.00023 3.5C9.04241 3.37344 9.06351 3.31014 9.08608 3.254C9.37427 2.53712 10.0496 2.05037 10.8208 2.00366C10.8812 2 10.9479 2 11.0814 2H13.9191C14.0525 2 14.1192 2 14.1796 2.00366C14.9508 2.05037 15.6262 2.53712 15.9144 3.254C15.9369 3.31014 15.958 3.37343 16.0002 3.5L16.0259 3.57697C16.0435 3.62968 16.0524 3.65656 16.061 3.68032C16.3412 4.45491 17.1766 4.97913 18 5" stroke="#2D2D2D" stroke-width="1.5"/>
<path d="M14.5 12.5H10.5C10.2239 12.5 10 12.7239 10 13V15.1615C10 15.3659 10.1245 15.5498 10.3143 15.6257L11.0144 15.9058C11.9681 16.2872 13.0319 16.2872 13.9856 15.9058L14.6857 15.6257C14.8755 15.5498 15 15.3659 15 15.1615V13C15 12.7239 14.7761 12.5 14.5 12.5Z" stroke="#2D2D2D" stroke-width="1.5" stroke-linecap="round"/>
</svg>
